<svg width="34" height="34" viewBox="0 0 34 34" fill="none" xmlns="http://www.w3.org/2000/svg">
<path d="M32.6699 2.84906H12.4135C11.8566 1.19502 10.2921 0 8.45268 0C6.61324 0 5.04875 1.19502 4.49184 2.84906H1.32997C0.595472 2.84906 0 3.44454 0 4.17904C0 4.91353 0.595472 5.50901 1.32997 5.50901H4.49193C5.04884 7.16305 6.61333 8.35807 8.45276 8.35807C10.2922 8.35807 11.8567 7.16305 12.4136 5.50901H32.67C33.4045 5.50901 34 4.91353 34 4.17904C34 3.44454 33.4045 2.84906 32.6699 2.84906ZM8.45268 5.69813C7.61506 5.69813 6.93358 5.01665 6.93358 4.17904C6.93358 3.34142 7.61506 2.65994 8.45268 2.65994C9.29029 2.65994 9.97177 3.34142 9.97177 4.17904C9.97177 5.01665 9.29029 5.69813 8.45268 5.69813Z" fill="black"/>
<path d="M32.6699 15.7055H29.508C28.9511 14.0515 27.3865 12.8564 25.5471 12.8564C23.7078 12.8564 22.1433 14.0515 21.5864 15.7055H1.32997C0.595472 15.7055 0 16.301 0 17.0355C0 17.77 0.595472 18.3655 1.32997 18.3655H21.5864C22.1433 20.0195 23.7079 21.2145 25.5472 21.2145C27.3866 21.2145 28.9512 20.0195 29.5081 18.3655H32.67C33.4045 18.3655 34 17.77 34 17.0355C34 16.301 33.4045 15.7055 32.6699 15.7055ZM25.5472 18.5546C24.7096 18.5546 24.0281 17.8731 24.0281 17.0355C24.0281 16.1979 24.7096 15.5164 25.5472 15.5164C26.3849 15.5164 27.0663 16.1979 27.0663 17.0355C27.0663 17.8731 26.3849 18.5546 25.5472 18.5546Z" fill="black"/>
<path d="M32.6699 28.4731H18.1117C17.5548 26.8191 15.9903 25.6241 14.1509 25.6241C12.3115 25.6241 10.747 26.8191 10.1901 28.4731H1.32997C0.595472 28.4731 0 29.0686 0 29.8031C0 30.5376 0.595472 31.1331 1.32997 31.1331H10.1901C10.747 32.7871 12.3115 33.9822 14.1509 33.9822C15.9903 33.9822 17.5548 32.7871 18.1117 31.1331H32.67C33.4045 31.1331 34 30.5376 34 29.8031C34 29.0686 33.4045 28.4731 32.6699 28.4731ZM14.1509 31.3223C13.3133 31.3223 12.6318 30.6408 12.6318 29.8032C12.6318 28.9656 13.3133 28.2841 14.1509 28.2841C14.9885 28.2841 15.67 28.9655 15.67 29.8031C15.67 30.6407 14.9885 31.3223 14.1509 31.3223Z" fill="black"/>
</svg>
