<?xml version="1.0" encoding="UTF-8" standalone="no"?>
<!-- Created with Inkscape (http://www.inkscape.org/) -->

<svg
   version="1.1"
   id="svg2"
   xml:space="preserve"
   width="140.69333"
   height="466.66666"
   viewBox="0 0 140.69333 466.66666"
   sodipodi:docname="beer_005.eps"
   xmlns:inkscape="http://www.inkscape.org/namespaces/inkscape"
   xmlns:sodipodi="http://sodipodi.sourceforge.net/DTD/sodipodi-0.dtd"
   xmlns="http://www.w3.org/2000/svg"
   xmlns:svg="http://www.w3.org/2000/svg"><defs
     id="defs6" /><sodipodi:namedview
     id="namedview4"
     pagecolor="#ffffff"
     bordercolor="#666666"
     borderopacity="1.0"
     inkscape:pageshadow="2"
     inkscape:pageopacity="0.0"
     inkscape:pagecheckerboard="0" /><g
     id="g8"
     inkscape:groupmode="layer"
     inkscape:label="ink_ext_XXXXXX"
     transform="matrix(1.3333333,0,0,-1.3333333,0,466.66667)"><g
       id="g10"
       transform="scale(0.1)"><path
         d="m 97.3203,1805.01 c 0,101.58 39.1407,207.64 116.6597,319.08 17.879,25.71 38.692,52.12 59.141,77.79 42.305,53.07 92.781,103.32 96.942,169.16 0.332,69.96 1.339,134.72 2.882,194.74 H 345.68 c -0.481,-9.8 -0.969,-19.49 -1.465,-28.99 -8.574,-164.14 -13.906,-177.67 -17.422,-186.62 -25.801,-65.55 -66.953,-113.36 -106.758,-159.61 -19.258,-22.36 -39.152,-45.48 -56.965,-70.3 C 85.875,2012.65 46.7344,1906.59 46.7344,1805.01 V 1625.66 H 97.7109 Z M 149.508,92.2266 c -0.899,0.6445 -1.621,1.1328 -2.305,1.6015 -0.754,0.6446 -1.66,1.4063 -2.949,2.4727 -5.606,4.6172 -10.566,9.8322 -15.383,15.2222 2.375,-2.226 -7.07,10.118 -7.644,11.028 -3.653,5.762 -6.836,11.812 -9.864,17.937 -2.929,12.266 -5.058,24.707 -7.011,36.731 -1.192,7.285 -2.422,14.558 -3.614,21.844 l -0.586,273.476 H 46.7344 V 286.758 c 0,-14.539 -1.3281,-30.508 -2.7266,-47.434 -2.7812,-33.765 -6.2578,-75.777 3.4492,-97.207 16.7188,-36.875 64.395,-64.1951 141.68,-81.2107 5.82,-1.2891 11.855,-2.4883 17.988,-3.6485 -7.637,4.0586 -15.176,8.1641 -22.48,12.3711 -12.082,6.9531 -23.731,14.5899 -35.137,22.5977 z M 1011.23,239.324 c -1.4,16.926 -2.72,32.895 -2.72,47.434 v 185.781 h -52.44 l -0.519,-245 C 940.395,181.086 920.133,138.508 886.645,105.918 862.348,82.2656 835.492,64.6289 806.988,50.7813 c 21.317,2.7734 41.004,6.1328 59.121,10.125 77.286,17.0039 124.961,44.3357 141.671,81.2107 9.7,21.43 6.24,63.442 3.45,97.207 z M 849.652,472.539 H 292.457 L 291.938,304.348 C 310.27,199.844 370.563,62.6367 558.754,41.7773 c 20.93,-0.371 44.023,-0.7226 68.965,-0.7226 43.73,0 83.281,1.2422 119.035,3.7695 15.391,11.7852 29.773,24.9805 42.781,39.8438 46.836,53.523 65.461,119.617 65.403,189.797 -0.059,66.062 -1.477,132.129 -5.286,198.074 z M 709.566,2565.78 h -26.3 c 1.191,-46.44 2.07,-95.71 2.558,-148.05 -8.66,-1.97 -17.344,-3.89 -26.015,-5.82 -1.004,6.68 -2.098,13.36 -3.399,20.07 -8.68,45.04 -19.101,88.75 -24.578,133.8 H 476.891 c -3.496,-9.69 -5.782,-19.22 -6.504,-28.5 -13.918,-149.17 -19.532,-161.11 -23.242,-169.3 -27.149,-59.98 61.543,-113.95 21.531,-160.06 -19.344,-22.3 -39.305,-47.33 -57.039,-75.03 -76.074,-119.44 -115.078,-226.3 -115.078,-327.88 l -0.547,-179.35 H 863.91 c 0.285,4.44 0.598,8.87 0.84,13.32 3.262,58.27 5.391,120 -3.602,178.64 2.911,88.63 -18.71,175.72 -52.48,260.58 -26.574,66.76 -58.098,132.29 -92.363,196.28 2.605,0.59 5.215,1.16 7.82,1.75 17.766,-25.41 39.238,-49.59 58.977,-74.35 20.437,-25.67 41.25,-52.08 59.128,-77.79 77.52,-111.44 116.661,-217.5 116.661,-319.08 l -0.379,-179.35 h 49.998 v 179.35 c 0,101.58 -39.131,207.64 -116.338,315.25 -17.801,24.82 -37.703,47.94 -56.961,70.3 -39.805,46.25 -80.957,94.06 -106.758,159.61 -3.515,8.95 -8.84,22.47 -17.422,186.62 -0.5,9.5 -0.988,19.19 -1.465,28.99 z m -80.382,766.16 h -27.95 l -0.007,-0.01 h -52.051 l -0.012,0.01 H 445.621 c -5.246,-28.81 -11.289,-61.59 -11.289,-61.59 0,0 81.563,-25.32 82.207,-27.21 -0.82,-9.06 -36.691,-0.34 -40.469,-25.7 -7.422,-14.3 -9.621,-28.73 -11.808,-43.07 -12.489,-53.02 -6.094,-106.46 -0.731,-159.06 h 156.551 c -2.43,64.8 -4.434,129.61 -5.75,194.44 3.309,3.65 6.152,7.4 8.621,11.25 7.578,-31.48 20.488,-95.63 32.688,-205.69 h 32.168 c -7.727,69.55 -18.555,133.9 -31.965,187.35 l -9.649,38.45 38.086,10.98 c 0.039,0 0.059,0.02 0.09,0.02 0.078,0.5 0.137,1.53 -0.254,3.2 l -18.078,76.62 h -21.758 v 0.01 h -0.066 c 5.41,-23.33 14.051,-48.9 21.719,-67.44 0.73,-1.68 -16.555,-7.25 -30.93,-11.96 4.258,24.84 -0.801,52 -5.82,79.4 z M 367.438,3015.31 h 33.132 c 18.821,169.77 39.348,230.29 39.348,230.29 -0.578,2.07 -50.859,16.07 -49.641,18.9 7.668,18.54 16.309,44.11 21.731,67.44 h -0.996 v -0.01 h -21.797 l -18.086,-76.62 c -0.391,-1.67 -0.332,-2.7 -0.254,-3.2 0.027,0 0.059,-0.02 0.086,-0.02 l 38.086,-10.98 -9.649,-38.45 c -13.406,-53.44 -24.226,-117.78 -31.96,-187.35 z m 100.632,-87.95 h -76.121 c -6.484,-74.86 -12.258,-165.28 -16.269,-273.63 h 102.41 c -3.836,12.22 -6.063,25 -6.59,39.34 -0.156,4.54 -0.937,22.68 -0.742,22.07 -10.391,33.57 -12.305,66.16 -9.16,100.88 3.574,39.44 6.152,76.04 6.472,111.34 z M 292.73,560.488 295.738,1537.71 H 97.8867 L 99.957,560.488 Z M 680.531,2653.73 c -4.011,108.36 -9.793,198.77 -16.269,273.63 h -40.489 c 2.422,-49.02 5.247,-98.12 5.286,-147.13 0.046,-42.13 -1.621,-84.34 -1.594,-126.5 z M 835.289,1111.27 c -6.926,-93.13 -14.699,-186.473 -14.543,-279.942 0.149,-91.504 13.762,-180.137 22.297,-270.84 h 113.211 l 2.07,977.222 H 857.223 c -4.239,-50.51 -8.496,-101.03 -9.688,-151.69 -2.148,-91.86 -5.422,-183.09 -12.246,-274.75 z M 347.348,2600.96 c -0.086,-1.96 -0.176,-3.91 -0.274,-5.87 h 361.094 c -0.098,1.96 -0.176,3.91 -0.273,5.87 -0.536,11.77 -1.063,23.52 -1.563,35.18 h -357.41 c -0.508,-11.66 -1.035,-23.41 -1.574,-35.18 z m 16.476,379.17 c -1.094,-11.63 -2.109,-23.35 -3.027,-35.19 h 333.66 c -0.926,11.84 -1.934,23.56 -3.027,35.19 -0.184,1.96 -0.391,3.9 -0.575,5.85 H 364.398 c -0.183,-1.95 -0.398,-3.89 -0.574,-5.85 z M 1008.51,542.898 H 46.7344 V 501.855 H 1008.51 Z m 0,1053.452 H 46.7344 V 1555.3 H 1008.51 Z m -670.557,1771.63 11.621,-0.81 c 1.965,1.67 4.211,2.87 6.633,3.6 1.582,0.48 3.223,0.8 4.961,0.8 h 0.039 c 5.996,0 11.25,-2.97 14.512,-7.49 0.644,-0.9 1.238,-1.82 1.719,-2.83 h 15.019 c 1.211,2.54 3.008,4.73 5.195,6.46 3.047,2.4 6.875,3.86 11.055,3.86 h 0.059 c 4.121,0 7.89,-1.43 10.918,-3.76 2.246,-1.74 4.082,-3.96 5.312,-6.55 h 15.039 c 2.383,5.04 7.051,8.76 12.637,9.91 1.172,0.24 2.351,0.4 3.594,0.4 h 0.047 c 7.187,0 13.359,-4.22 16.242,-10.31 h 15.039 c 2.89,6.09 9.062,10.31 16.23,10.31 h 0.059 c 7.187,0 13.34,-4.22 16.23,-10.31 h 15.028 c 2.89,6.09 9.054,10.31 16.242,10.31 h 0.066 c 7.168,0 13.332,-4.22 16.223,-10.32 h 15.019 c 2.891,6.1 9.063,10.32 16.25,10.32 H 599 c 7.176,0 13.34,-4.22 16.23,-10.31 h 15.028 c 1.289,2.72 3.254,5.03 5.644,6.79 2.981,2.2 6.614,3.52 10.598,3.52 h 0.059 c 4.179,0 7.988,-1.46 11.043,-3.86 2.187,-1.73 3.976,-3.92 5.195,-6.46 h 15.031 c 0.469,1 1.055,1.93 1.707,2.82 3.254,4.53 8.516,7.5 14.512,7.5 h 0.039 c 1.738,0 3.379,-0.32 4.953,-0.8 2.43,-0.73 4.676,-1.92 6.641,-3.6 l 11.629,0.81 c 2.539,2.94 4.816,6.2 5.754,10.67 0.808,4.08 1.21,8.2 1.199,12.3 -0.067,22.15 -11.278,43.34 -28.895,64.01 -5.527,6.21 -12.433,10.47 -20.039,11.66 -5,0.67 -9.836,1.11 -14.445,1.31 -43.203,1.79 -86.395,2.68 -129.598,2.73 -1.066,0.01 -2.129,0.02 -3.203,0.02 -0.148,0 -0.293,0.01 -0.449,0.01 -28.438,0 -56.867,-0.42 -85.305,-1.18 -15.32,-0.41 -30.652,-0.88 -45.984,-1.51 -0.664,-0.03 -1.321,-0.05 -1.973,-0.07 -4.601,-0.2 -9.433,-0.64 -14.414,-1.3 -7.629,-1.2 -14.531,-5.46 -20.059,-11.65 -17.648,-20.69 -28.847,-41.88 -28.925,-64.03 0,-4.1 0.39,-8.22 1.23,-12.32 0.926,-4.45 3.203,-7.71 5.75,-10.65 z m 318.02,5.16 -0.012,0.01 c 0.012,-0.01 0.012,-0.01 0.012,-0.01 1.16,2.34 1.836,4.74 2.031,7.15 -0.195,-2.41 -0.871,-4.81 -2.031,-7.15 z m 19.715,79.19 c 0,0 36.542,-30.38 34.082,-68.56 0,0 -6.883,5.93 -16.258,6.57 -5.793,0.4 -12.52,-1.29 -19.219,-7.63 -0.625,-0.6 -1.262,-1.13 -1.887,-1.81 0,0 -6.308,4.14 -15.242,6.6 -11.203,3.09 -26.535,3.54 -38.859,-10.18 -0.293,-0.33 -0.614,-0.59 -0.907,-0.94 0,0 0.157,0.35 0.411,0.94 1.093,2.6 4.16,10.51 5.457,20.53 0.82,6.29 0.91,13.4 -0.594,20.51 -0.676,3.16 -1.66,6.31 -3.047,9.41 l 40.469,11.02 -50.246,2.78 c -4.61,4.43 -10.586,8.39 -18.321,11.58 z m -294.989,-2.29 c 0.899,1.42 5.653,2.3 12.391,2.81 11.125,0.84 27.695,0.69 41.457,0.33 13.699,-0.37 24.629,-0.93 24.629,-0.93 -0.625,-13.46 -8.371,-25.11 -16.68,-33.89 -0.129,-0.12 -0.254,-0.24 -0.371,-0.37 l -49.59,-17.93 32.5,0.84 c 7.031,-0.65 12.91,-1.72 17.735,-3.05 17.968,-4.93 22.109,-13.05 22.109,-13.05 -41.66,12.29 -83.379,-1.29 -83.379,-1.29 -0.012,0 -0.012,0 -0.02,0.01 -5.019,4.59 -16.054,3.15 -21.621,2.05 -2.05,-0.41 -3.39,-0.77 -3.39,-0.77 -2.41,24.63 24.23,65.24 24.23,65.24"
         style="fill:#ffffff;fill-opacity:1;fill-rule:nonzero;stroke:none"
         id="path12" /><path
         d="m 381.48,3383.52 c 0.008,-0.01 0.008,-0.01 0.02,-0.01 0,0 41.719,13.58 83.379,1.29 0,0 -4.141,8.12 -22.109,13.05 -4.825,1.33 -10.704,2.4 -17.735,3.05 l -32.5,-0.84 49.59,17.93 c 0.117,0.13 0.242,0.25 0.371,0.37 8.309,8.78 16.055,20.43 16.68,33.89 0,0 -74.668,3.88 -78.477,-2.21 0,0 -26.64,-40.61 -24.23,-65.24 0,0 1.34,0.36 3.39,0.77 5.567,1.1 16.602,2.54 21.621,-2.05 z m 278.614,55.27 -40.469,-11.02 c 1.387,-3.1 2.371,-6.25 3.047,-9.41 1.504,-7.11 1.414,-14.22 0.594,-20.51 -1.297,-10.02 -4.364,-17.93 -5.457,-20.53 -0.254,-0.59 -0.411,-0.94 -0.411,-0.94 0.293,0.35 0.614,0.61 0.907,0.94 22.148,24.66 54.101,3.58 54.101,3.58 0.625,0.68 1.262,1.21 1.887,1.81 6.699,6.34 13.426,8.03 19.219,7.63 9.375,-0.64 16.258,-6.57 16.258,-6.57 2.46,38.18 -34.082,68.56 -34.082,68.56 l -84.161,0.82 c 7.735,-3.19 13.711,-7.15 18.321,-11.58 z M 1049.57,286.758 V 1805.01 c 0,124.81 -52.347,239.23 -124.047,339.17 -55.5,77.36 -123.664,131.52 -158.878,221.02 -5.379,13.67 -11.25,104.55 -15.997,200.58 -0.476,9.74 -0.945,19.54 -1.394,29.31 -0.098,1.96 -0.176,3.91 -0.274,5.87 -0.546,11.82 -1.066,23.59 -1.574,35.18 -0.254,5.91 -0.508,11.79 -0.742,17.59 -1.961,46.63 -3.504,88.93 -4.414,117.62 -0.02,53.64 -1.922,106.03 -5.32,156.01 -0.403,5.92 -0.852,11.73 -1.309,17.58 -0.898,11.88 -1.867,23.62 -2.93,35.19 -0.187,1.94 -0.343,3.92 -0.527,5.85 -0.937,9.9 -1.934,19.69 -2.98,29.33 -8.289,75.82 -19.969,143.32 -33.536,197.33 21.934,6.33 34.153,27.79 28.411,52.09 l -17.246,73.14 0.917,0.06 11.629,0.81 12.149,0.85 7.969,9.2 c 4.121,4.76 9.875,12.41 12.277,23.84 l 0.027,0.14 0.032,0.15 c 1.191,5.97 1.785,12.06 1.777,18.12 -0.09,27.56 -11.828,54.69 -35.91,82.94 l -0.215,0.24 -0.203,0.24 c -10.352,11.61 -23.282,18.92 -37.395,21.13 l -0.351,0.05 -0.352,0.05 c -5.976,0.79 -11.707,1.3 -17.039,1.53 -44.57,1.84 -89.816,2.78 -134.492,2.78 -44.688,0 -89.922,-0.94 -134.473,-2.78 -5.332,-0.23 -11.055,-0.74 -17.012,-1.52 l -0.382,-0.05 -0.379,-0.06 c -14.102,-2.22 -27.012,-9.51 -37.356,-21.08 l -0.222,-0.25 -0.215,-0.26 c -24.094,-28.26 -35.84,-55.39 -35.938,-82.96 0,-6.23 0.606,-12.33 1.817,-18.25 2.429,-11.63 8.222,-19.29 12.371,-24.06 l 7.961,-9.14 12.109,-0.85 11.621,-0.81 0.899,-0.06 -17.246,-73.14 c -5.743,-24.3 6.472,-45.76 28.398,-52.09 -13.555,-54.01 -25.234,-121.51 -33.516,-197.33 -1.054,-9.64 -2.043,-19.43 -2.988,-29.33 -0.176,-1.93 -0.344,-3.91 -0.519,-5.85 -1.063,-11.57 -2.04,-23.31 -2.938,-35.19 -0.449,-5.85 -0.898,-11.66 -1.309,-17.58 -3.398,-49.98 -5.293,-102.37 -5.324,-156.01 -0.906,-28.69 -2.449,-70.99 -4.402,-117.62 -0.246,-5.8 -0.5,-11.68 -0.762,-17.59 -0.488,-11.59 -1.015,-23.36 -1.562,-35.18 -0.098,-1.96 -0.176,-3.91 -0.274,-5.87 -0.449,-9.77 -0.918,-19.57 -1.406,-29.31 C 299.859,2469.75 293.98,2378.87 288.59,2365.2 253.383,2275.7 185.219,2221.54 129.723,2144.18 58.0234,2044.24 5.67969,1929.82 5.67969,1805.01 V 286.758 c 0,-45.059 -15.34375,-118.028 4.40231,-161.582 1.418,-3.125 3,-6.121 4.6602,-9.082 0.3516,-0.633 0.7031,-1.258 1.0547,-1.895 1.6797,-2.851 3.4453,-5.644 5.332,-8.347 0.3203,-0.469 0.6641,-0.903 0.9844,-1.348 1.7773,-2.473 3.6445,-4.9024 5.6055,-7.2579 0.3515,-0.4297 0.6953,-0.8594 1.0468,-1.2891 2.168,-2.5507 4.461,-5.0195 6.836,-7.4609 0.5078,-0.5078 1.0351,-1.0234 1.5507,-1.5313 4.9727,-4.914 10.3633,-9.5546 16.1329,-13.9453 0.5976,-0.4531 1.1718,-0.8906 1.7695,-1.332 2.8711,-2.125 5.8086,-4.1875 8.8555,-6.1914 0.4609,-0.3008 0.9375,-0.5938 1.4179,-0.8945 2.8516,-1.836 5.7813,-3.6446 8.7891,-5.3907 0.4883,-0.2734 0.957,-0.5586 1.4453,-0.8437 3.2617,-1.8633 6.6211,-3.6719 10.0391,-5.418 0.6836,-0.3515 1.375,-0.6836 2.0703,-1.0351 7.0586,-3.5235 14.4331,-6.836 22.0901,-9.9024 0.742,-0.3008 1.465,-0.6054 2.195,-0.8906 3.789,-1.4805 7.648,-2.9375 11.555,-4.3242 0.527,-0.1875 1.054,-0.3711 1.57,-0.5469 3.723,-1.2891 7.473,-2.5391 11.301,-3.7617 0.547,-0.1758 1.074,-0.3477 1.629,-0.5235 4.074,-1.2734 8.215,-2.4921 12.394,-3.664 0.782,-0.2266 1.563,-0.4414 2.344,-0.6445 8.555,-2.375 17.324,-4.543 26.258,-6.5352 0.812,-0.1641 1.613,-0.3594 2.414,-0.5234 4.414,-0.9688 8.867,-1.8985 13.367,-2.7774 0.52,-0.0937 1.066,-0.2031 1.582,-0.3086 4.277,-0.8242 8.586,-1.6133 12.922,-2.3672 0.586,-0.0937 1.152,-0.2031 1.738,-0.3007 4.571,-0.7813 9.18,-1.5235 13.797,-2.2266 0.832,-0.1367 1.672,-0.2461 2.5,-0.3711 9.406,-1.4063 18.918,-2.66797 28.488,-3.77735 0.848,-0.10156 1.7,-0.20703 2.559,-0.30469 4.707,-0.53515 9.434,-1.03515 14.16,-1.51562 0.555,-0.04688 1.113,-0.10547 1.66,-0.15625 4.481,-0.4375 8.985,-0.84766 13.477,-1.25 0.613,-0.03906 1.23,-0.09766 1.855,-0.15235 4.746,-0.40234 9.493,-0.76562 14.227,-1.11328 0.84,-0.05078 1.672,-0.10937 2.512,-0.17578 9.629,-0.6875 19.246,-1.24219 28.808,-1.71094 0.86,-0.05078 1.727,-0.09765 2.586,-0.13671 4.68,-0.21485 9.348,-0.42188 13.996,-0.60547 0.586,-0.01953 1.172,-0.03907 1.766,-0.07032 4.328,-0.14453 8.652,-0.300777 12.941,-0.425777 0.664,-0.011719 1.348,-0.039063 2.012,-0.0625 4.551,-0.125 9.082,-0.230469 13.574,-0.328125 0.879,-0.023438 1.758,-0.03125 2.637,-0.0625 9.168,-0.164063 18.203,-0.28125 27.078,-0.3398442 0.832,-0.0078125 1.672,-0.0078125 2.5,-0.0195313 C 418.512,0.0195313 422.828,0 427.086,0 h 1.551 c 4.054,0 8.047,0.0195313 11.992,0.0390625 h 1.672 c 4.199,0.0195313 8.359,0.0585938 12.441,0.0976565 0.645,0 1.289,0.019531 1.934,0.019531 8.379,0.078125 16.504,0.1875 24.324,0.3125 0.5,0.019531 0.988,0.019531 1.477,0.027344 8.828,0.140625 17.226,0.292969 25.203,0.433594 2.668,0.066406 5.265,0.105472 7.824,0.144532 0.859,0.01953 1.738,0.03125 2.598,0.05859 3.25,0.03907 6.445,0.09766 9.519,0.13672 3.086,-0.03906 6.301,-0.09765 9.563,-0.13672 0.828,-0.02734 1.66,-0.03906 2.5,-0.05859 2.683,-0.03906 5.41,-0.097657 8.211,-0.144532 7.882,-0.148438 16.191,-0.292969 24.882,-0.433594 0.481,-0.007813 0.969,-0.007813 1.457,-0.027344 7.84,-0.125 15.977,-0.234375 24.364,-0.3125 0.636,0 1.25,-0.019531 1.894,-0.019531 4.094,-0.0390627 8.242,-0.0781252 12.453,-0.0976565 h 1.668 C 618.57,0.0195313 622.555,0 626.598,0 h 1.562 c 4.258,0 8.582,0.0195313 12.918,0.0390625 l 2.5,0.0195313 c 8.84,0.0585942 17.863,0.1757812 26.992,0.3398442 0.93,0.03125 1.856,0.039062 2.785,0.0625 4.461,0.097656 8.946,0.203125 13.458,0.328125 0.73,0.023437 1.464,0.050781 2.175,0.070312 4.18,0.136719 8.391,0.273435 12.598,0.410155 0.715,0.03906 1.406,0.0586 2.109,0.07813 4.563,0.18359 9.133,0.39062 13.711,0.60547 0.996,0.03906 1.992,0.08593 2.981,0.13671 4.695,0.23438 9.394,0.46875 14.109,0.76172 0.129,0 0.254,0.00782 0.383,0.03125 4.59,0.26953 9.18,0.57422 13.789,0.90625 1.016,0.06641 2.039,0.13672 3.066,0.21485 4.579,0.33203 9.168,0.68359 13.758,1.0625 l 2.539,0.22656 c 4.16,0.35156 8.332,0.75391 12.481,1.14453 0.812,0.08594 1.613,0.15625 2.414,0.22266 4.57,0.46875 9.129,0.95703 13.672,1.47656 1.062,0.125 2.109,0.24219 3.164,0.37109 4.648,0.54688 9.297,1.10157 13.926,1.70699 0.144,0.0196 0.3,0.0508 0.449,0.0782 4.492,0.5859 8.965,1.2304 13.418,1.8945 1.035,0.1563 2.09,0.3008 3.133,0.4688 4.453,0.6718 8.898,1.3984 13.292,2.1484 0.821,0.1367 1.629,0.293 2.442,0.4297 3.984,0.6953 7.949,1.414 11.883,2.1679 0.8,0.1563 1.593,0.3008 2.394,0.4688 4.317,0.8398 8.594,1.7383 12.852,2.6562 1.004,0.2266 2,0.4415 3.015,0.6719 4.317,0.9688 8.614,1.9531 12.852,3 0.168,0.0391 0.332,0.0977 0.488,0.125 4.153,1.0274 8.235,2.1211 12.297,3.2422 l 2.871,0.793 c 4.031,1.1445 8.035,2.3242 11.981,3.5429 0.734,0.2383 1.445,0.4688 2.168,0.7032 3.574,1.1328 7.101,2.3164 10.578,3.5273 0.691,0.2461 1.387,0.4688 2.07,0.7149 3.817,1.3437 7.559,2.7617 11.238,4.207 0.86,0.332 1.711,0.6836 2.571,1.0156 3.738,1.5156 7.449,3.0664 11.054,4.6758 l 0.274,0.1289 c 3.555,1.5938 7,3.2617 10.41,4.9609 0.781,0.3907 1.562,0.7696 2.324,1.1719 3.36,1.7188 6.66,3.4961 9.863,5.3125 0.567,0.332 1.122,0.6563 1.68,0.9883 2.899,1.6875 5.742,3.4258 8.504,5.2031 0.527,0.3438 1.074,0.6758 1.594,1.0156 3.008,1.9844 5.918,4.0235 8.747,6.1211 0.65,0.4688 1.26,0.9493 1.89,1.418 2.87,2.1875 5.68,4.3945 8.35,6.707 0.02,0.0313 0.04,0.0508 0.08,0.0704 2.64,2.2851 5.16,4.6757 7.61,7.0898 0.54,0.5273 1.08,1.0547 1.59,1.582 2.38,2.4219 4.66,4.8907 6.83,7.4414 0.36,0.4297 0.69,0.8594 1.06,1.2891 1.95,2.3633 3.81,4.7739 5.58,7.2459 0.33,0.449 0.67,0.891 1,1.36 1.89,2.703 3.65,5.496 5.32,8.347 0.37,0.637 0.71,1.262 1.06,1.895 1.67,2.961 3.25,5.976 4.66,9.082 19.75,43.554 4.41,116.523 4.41,161.582 z M 711.031,2536.79 c 8.582,-164.15 13.907,-177.67 17.422,-186.62 25.801,-65.55 66.953,-113.36 106.758,-159.61 19.258,-22.36 39.16,-45.48 56.961,-70.3 77.207,-107.61 116.338,-213.67 116.338,-315.25 v -179.35 h -49.998 l 0.379,179.35 c 0,101.58 -39.141,207.64 -116.661,319.08 -17.878,25.71 -38.691,52.12 -59.128,77.79 -19.739,24.76 -41.211,48.94 -58.977,74.35 -2.605,-0.59 -5.215,-1.16 -7.82,-1.75 34.265,-63.99 65.789,-129.52 92.363,-196.28 33.77,-84.86 55.391,-171.95 52.48,-260.58 8.993,-58.64 6.864,-120.37 3.602,-178.64 -0.242,-4.45 -0.555,-8.88 -0.84,-13.32 H 296.012 l 0.547,179.35 c 0,101.58 39.004,208.44 115.078,327.88 17.734,27.7 37.695,52.73 57.039,75.03 40.012,46.11 -48.68,100.08 -21.531,160.06 3.71,8.19 9.324,20.13 23.242,169.3 0.722,9.28 3.008,18.81 6.504,28.5 h 154.941 c 5.477,-45.05 15.898,-88.76 24.578,-133.8 1.301,-6.71 2.395,-13.39 3.399,-20.07 8.671,1.93 17.355,3.85 26.015,5.82 -0.488,52.34 -1.367,101.61 -2.558,148.05 h 26.3 c 0.477,-9.8 0.965,-19.49 1.465,-28.99 z m -354.824,833.98 c -2.422,-0.73 -4.668,-1.93 -6.633,-3.6 l -11.621,0.81 c -2.547,2.94 -4.824,6.2 -5.75,10.65 -0.84,4.1 -1.23,8.22 -1.23,12.32 0.078,22.15 11.277,43.34 28.925,64.03 5.528,6.19 12.43,10.45 20.059,11.65 4.981,0.66 9.813,1.1 14.414,1.3 44.414,1.84 88.836,2.76 133.262,2.76 44.414,0 88.828,-0.92 133.25,-2.76 4.609,-0.2 9.445,-0.64 14.445,-1.31 7.606,-1.19 14.512,-5.45 20.039,-11.66 17.617,-20.67 28.828,-41.86 28.895,-64.01 0.011,-4.1 -0.391,-8.22 -1.199,-12.3 -0.938,-4.47 -3.215,-7.73 -5.754,-10.67 l -11.629,-0.81 c -1.965,1.68 -4.211,2.87 -6.641,3.6 -1.574,0.48 -3.215,0.8 -4.953,0.8 h -0.039 c -5.996,0 -11.258,-2.97 -14.512,-7.5 -0.652,-0.89 -1.238,-1.82 -1.707,-2.82 h -15.031 c -1.219,2.54 -3.008,4.73 -5.195,6.46 -3.055,2.4 -6.864,3.86 -11.043,3.86 H 646.5 c -3.984,0 -7.617,-1.32 -10.598,-3.52 -2.39,-1.76 -4.355,-4.07 -5.644,-6.79 H 615.23 c -2.89,6.09 -9.054,10.31 -16.23,10.31 h -0.059 c -7.187,0 -13.359,-4.22 -16.25,-10.32 h -15.019 c -2.891,6.1 -9.055,10.32 -16.223,10.32 h -0.066 c -7.188,0 -13.352,-4.22 -16.242,-10.31 h -15.028 c -2.89,6.09 -9.043,10.31 -16.23,10.31 h -0.059 c -7.168,0 -13.34,-4.22 -16.23,-10.31 h -15.039 c -2.883,6.09 -9.055,10.31 -16.242,10.31 h -0.047 c -1.243,0 -2.422,-0.16 -3.594,-0.4 -5.586,-1.15 -10.254,-4.87 -12.637,-9.91 h -15.039 c -1.23,2.59 -3.066,4.81 -5.312,6.55 -3.028,2.33 -6.797,3.76 -10.918,3.76 h -0.059 c -4.18,0 -8.008,-1.46 -11.055,-3.86 -2.187,-1.73 -3.984,-3.92 -5.195,-6.46 h -15.019 c -0.481,1.01 -1.075,1.93 -1.719,2.83 -3.262,4.52 -8.516,7.49 -14.512,7.49 h -0.039 c -1.738,0 -3.379,-0.32 -4.961,-0.8 z m 267.566,-443.41 h 40.489 c 6.476,-74.86 12.258,-165.27 16.269,-273.63 h -53.066 c -0.027,42.16 1.64,84.37 1.594,126.5 -0.039,49.01 -2.864,98.11 -5.286,147.13 z m -262.976,17.58 c 0.918,11.84 1.933,23.56 3.027,35.19 0.176,1.96 0.391,3.9 0.574,5.85 h 326.457 c 0.184,-1.95 0.391,-3.89 0.575,-5.85 1.093,-11.63 2.101,-23.35 3.027,-35.19 z m 109.961,-229.8 c -0.195,0.61 0.586,-17.53 0.742,-22.07 0.527,-14.34 2.754,-27.12 6.59,-39.34 H 375.68 c 4.011,108.35 9.785,198.77 16.269,273.63 h 76.121 c -0.32,-35.3 -2.898,-71.9 -6.472,-111.34 -3.145,-34.72 -1.231,-67.31 9.16,-100.88 z m -99.797,536.95 c -0.027,0 -0.059,0.02 -0.086,0.02 -0.078,0.5 -0.137,1.53 0.254,3.2 l 18.086,76.62 h 21.797 v 0.01 h 0.996 c -5.422,-23.33 -14.063,-48.9 -21.731,-67.44 -1.218,-2.83 49.063,-16.83 49.641,-18.9 0,0 -20.527,-60.52 -39.348,-230.29 h -33.132 c 7.734,69.57 18.554,133.91 31.96,187.35 l 9.649,38.45 z m 294.973,12.41 c -7.668,18.54 -16.309,44.11 -21.719,67.44 h 0.066 v -0.01 h 21.758 l 18.078,-76.62 c 0.391,-1.67 0.332,-2.7 0.254,-3.2 -0.031,0 -0.051,-0.02 -0.09,-0.02 l -38.086,-10.98 9.649,-38.45 c 13.41,-53.45 24.238,-117.8 31.965,-187.35 h -32.168 c -12.2,110.06 -25.11,174.21 -32.688,205.69 -2.469,-3.85 -5.312,-7.6 -8.621,-11.25 1.316,-64.83 3.32,-129.64 5.75,-194.44 H 463.531 c -5.363,52.6 -11.758,106.04 0.731,159.06 2.187,14.34 4.386,28.77 11.808,43.07 3.778,25.36 39.649,16.64 40.469,25.7 -0.644,1.89 -82.207,27.21 -82.207,27.21 0,0 6.043,32.78 11.289,61.59 h 103.543 l 0.012,-0.01 h 52.051 l 0.007,0.01 h 27.95 c 5.019,-27.4 10.078,-54.56 5.82,-79.4 14.375,4.71 31.66,10.28 30.93,11.96 z M 347.348,2600.96 c 0.539,11.77 1.066,23.52 1.574,35.18 h 357.41 c 0.5,-11.66 1.027,-23.41 1.563,-35.18 0.097,-1.96 0.175,-3.91 0.273,-5.87 H 347.074 c 0.098,1.96 0.188,3.91 0.274,5.87 z M 46.7344,1805.01 c 0,101.58 39.1406,207.64 116.3356,315.25 17.813,24.82 37.707,47.94 56.965,70.3 39.805,46.25 80.957,94.06 106.758,159.61 3.516,8.95 8.848,22.48 17.422,186.62 0.496,9.5 0.984,19.19 1.465,28.99 h 27.265 c -1.543,-60.02 -2.55,-124.78 -2.882,-194.74 -4.161,-65.84 -54.637,-116.09 -96.942,-169.16 -20.449,-25.67 -41.262,-52.08 -59.141,-77.79 C 136.461,2012.65 97.3203,1906.59 97.3203,1805.01 l 0.3906,-179.35 H 46.7344 Z m 0,-208.66 H 1008.51 V 1555.3 H 46.7344 Z m 911.5896,-58.64 -2.07,-977.222 H 843.043 c -8.535,90.703 -22.148,179.336 -22.297,270.84 -0.156,93.469 7.617,186.812 14.543,279.942 6.824,91.66 10.098,182.89 12.246,274.75 1.192,50.66 5.449,101.18 9.688,151.69 z m -662.586,0 -3.008,-977.222 H 99.957 L 97.8867,1537.71 Z M 189.137,60.9063 C 111.852,77.9219 64.1758,105.242 47.457,142.117 c -9.707,21.43 -6.2304,63.442 -3.4492,97.207 1.3985,16.926 2.7266,32.895 2.7266,47.434 v 185.781 h 53.4176 l 0.586,-273.476 c 1.192,-7.286 2.422,-14.559 3.614,-21.844 1.953,-12.024 4.082,-24.465 7.011,-36.731 3.028,-6.125 6.211,-12.175 9.864,-17.937 0.574,-0.91 10.019,-13.254 7.644,-11.028 4.817,-5.39 9.777,-10.605 15.383,-15.2222 1.289,-1.0664 2.195,-1.8281 2.949,-2.4727 0.684,-0.4687 1.406,-0.957 2.305,-1.6015 11.406,-8.0078 23.055,-15.6446 35.137,-22.5977 7.304,-4.207 14.843,-8.3125 22.48,-12.3711 -6.133,1.1602 -12.168,2.3594 -17.988,3.6485 z M 46.7344,501.855 v 41.043 H 1008.51 V 501.855 Z M 789.535,84.668 C 776.527,69.8047 762.145,56.6094 746.754,44.8242 711,42.2969 671.449,41.0547 627.719,41.0547 c -24.942,0 -48.035,0.3516 -68.965,0.7226 C 370.563,62.6367 310.27,199.844 291.938,304.348 l 0.519,168.191 h 557.195 c 3.809,-65.945 5.227,-132.012 5.286,-198.074 0.058,-70.18 -18.567,-136.274 -65.403,-189.797 z m 218.245,57.449 C 991.07,105.242 943.395,77.9102 866.109,60.9063 c -18.117,-3.9922 -37.804,-7.3516 -59.121,-10.125 28.504,13.8476 55.36,31.4843 79.657,55.1367 33.488,32.59 53.75,75.168 68.906,121.621 l 0.519,245 h 52.44 V 286.758 c 0,-14.539 1.32,-30.508 2.72,-47.434 2.79,-33.765 6.25,-75.777 -3.45,-97.207"
         style="fill:#100f0d;fill-opacity:1;fill-rule:nonzero;stroke:none"
         id="path14" /></g></g></svg>
